<svg width="40" height="40" viewBox="0 0 40 40" fill="none" xmlns="http://www.w3.org/2000/svg">
<path d="M17.595 3.57206C17.6171 5.838 16.2649 4.44847 16.2834 5.7212C16.2918 6.30285 17.0095 6.82167 17.3978 7.573C17.8592 8.46558 17.9932 9.6105 17.8447 10.5157C17.7482 11.1046 17.5525 11.6973 17.2903 12.2389C16.5782 13.7103 15.4432 14.5166 13.6325 14.3731C11.9119 14.2367 10.1786 14.251 8.45276 14.1659C7.83065 14.1352 6.00245 13.5224 5.94768 13.8998C5.86659 14.4592 6.18495 14.8525 6.67487 15.0035C7.53464 15.2686 8.42026 15.5282 9.31315 15.6093C11.0317 15.7654 12.7703 15.7293 14.4859 15.9046C15.3939 15.9973 16.3268 16.2561 17.1491 16.636C18.5052 17.2626 18.8592 18.3599 18.7228 20.0628C18.5916 21.7028 17.7883 22.8271 16.31 23.5832C15.9797 23.7522 15.6655 23.9539 15.3603 24.1625C14.8428 24.516 14.8803 24.9288 15.4457 25.1865C15.7748 25.3365 16.114 25.4664 16.4446 25.6138C17.976 26.2968 18.9825 28.2452 18.5983 29.7768C18.4061 30.5428 17.4249 30.8767 16.7845 30.4004C15.8053 29.672 14.7466 29.1047 13.4824 28.9813C12.4492 28.8805 11.5702 29.1875 10.901 29.9513C10.7692 30.1017 10.6527 30.3984 10.7228 30.5409C10.8046 30.7072 11.0884 30.8471 11.3028 30.8762C11.7142 30.9318 12.1388 30.9145 12.5573 30.9039C15.213 30.8364 16.9206 31.9977 17.8221 34.3945C18.8836 37.216 16.5971 39.4328 14.2414 39.895C12.6114 40.2147 11.2195 39.6568 9.94276 38.7551C8.74386 37.9082 7.76167 36.86 6.84487 35.6603C7.72268 35.6987 8.53565 35.6928 9.33776 35.7794C10.4221 35.8964 11.4994 36.0778 12.5768 36.248C12.7838 36.2807 12.9858 36.3738 13.1758 36.466C13.7078 36.7239 13.7134 37.0317 13.2492 37.3992C12.9816 37.4916 12.6314 37.7189 12.8544 37.9517C13.0912 38.1774 13.2699 38.198 13.496 38.2591C13.6844 38.31 13.9041 38.2916 14.1035 38.2629C14.6836 38.1793 15.2372 38.0126 15.4796 37.4389C15.7243 36.8592 15.4221 36.3819 15.0626 35.9423C14.1046 34.7707 12.7392 34.4697 11.2923 34.3632C9.24932 34.2129 7.20409 34.0898 5.16323 33.9183C4.70214 33.8796 4.238 33.7295 3.80464 33.5616C2.69917 33.1332 2.29448 32.1703 2.71503 31.1116C3.4019 31.2977 4.07557 31.5438 4.77284 31.656C6.29659 31.901 7.70323 31.5985 8.89573 30.6153C9.48956 30.1257 9.81331 29.5125 9.68214 28.7349C9.6105 28.3102 9.34932 28.1791 8.98456 28.4277C8.6187 28.677 8.27089 28.955 7.94096 29.2471C7.02651 30.0562 5.96268 30.2787 4.77456 29.999C3.50893 29.701 2.3705 29.1916 1.71057 28.042C0.989637 26.7858 1.44909 25.0656 2.7887 23.9103C3.06409 23.6728 3.37542 23.4732 3.59651 23.3103C4.12206 23.6913 4.57479 24.0446 5.05557 24.3588C5.35534 24.5548 5.678 24.5486 5.88253 24.205C6.08901 23.8582 6.03878 23.5476 5.70636 23.2745C5.39948 23.0224 5.06636 22.7778 4.83409 22.4688C4.21221 21.6416 4.3587 20.5378 5.14206 19.8473C5.22721 19.7723 5.36206 19.7084 5.47432 19.7077C6.79417 19.6993 8.11479 19.6821 9.43378 19.7164C9.93042 19.7294 10.445 19.8096 10.9137 19.9636C12.0615 20.3407 12.7053 21.3572 12.5295 22.4014C12.3683 23.3589 11.4276 24.0764 10.2439 24.1391C10.0296 24.1504 9.80995 24.1172 9.60089 24.1508C9.09385 24.1667 9.19112 24.6801 9.28065 24.7839C10.106 25.7405 11.4053 25.9797 12.5332 25.4035C15.1953 24.0437 15.3996 20.5829 12.9142 18.9764C11.9928 18.3808 10.9659 18.0509 9.86815 17.9979C8.52917 17.9334 7.18378 17.9878 5.84534 17.9181C4.54971 17.8506 3.39065 17.4073 2.51815 16.4457C1.84182 15.7004 1.69815 14.8434 2.0569 13.9164C2.74628 12.1353 4.5401 11.2135 6.67471 11.6053C8.11628 11.8698 9.5305 12.28 10.9776 12.5032C11.8854 12.6431 12.8439 12.655 13.7578 12.5502C15.2304 12.3814 16.1076 11.492 16.4245 10.115C16.744 8.72683 16.3734 7.55277 15.1714 6.6705C14.1806 5.94316 13.0204 5.62339 11.8034 5.4648C10.4786 5.29214 9.16839 5.34902 7.88503 5.73339C7.15518 5.99706 7.07831 6.45488 7.1212 6.68277C7.14964 6.83425 7.52768 7.02144 7.75378 7.02714C8.82534 7.05417 9.90136 6.97339 10.9702 7.02839C12.1058 7.08691 13.2487 7.2073 14.142 8.02253C14.7922 8.61605 15.0565 9.36886 14.8038 9.978C14.5282 10.6421 13.8112 11.0691 12.8931 11.02C12.2324 10.9846 11.572 10.874 10.9216 10.7488C9.53409 10.4816 8.15831 10.157 6.76729 9.90972C6.17339 9.80425 5.55307 9.83347 4.92706 9.80058C4.29737 8.23472 3.92604 7.29285 5.56221 5.83753C7.07526 4.4916 8.86737 3.55206 11.0179 3.60292C11.7574 3.6205 12.487 3.92988 13.2257 4.08581C13.8467 4.21691 14.4732 4.3262 15.1003 4.42675C15.2147 4.44503 15.7428 4.55222 15.6003 4.31324C15.3749 3.98394 15.2303 3.65894 14.9849 3.43417C13.8711 2.41378 12.4947 1.98652 10.979 1.91292C10.7753 1.903 10.5709 1.90902 10.3668 1.90589C10.3475 1.90566 10.3285 1.89355 10.2533 1.86761C10.8035 1.03761 11.4846 0.370111 12.4907 0.135814C13.8278 -0.17567 15.1038 0.071752 16.2471 0.787143C17.3998 1.50847 17.5807 2.1037 17.595 3.57206ZM2.43128 18.3994C2.12229 18.2274 1.9287 18.2485 1.67425 18.451C0.339168 19.5131 -0.0529415 20.929 0.00549599 22.5052C0.0261991 23.0628 0.202683 23.5769 0.706824 23.9135C1.13846 23.5625 1.51901 23.1961 1.958 22.912C2.40503 22.6224 2.90956 22.4137 3.40776 22.16C3.20026 21.0729 3.52878 20.0818 4.14362 19.1752C3.55057 18.9123 2.96581 18.6969 2.4312 18.3994H2.43128ZM22.5147 3.67199C22.5508 2.32074 22.6908 1.71042 23.2124 1.18347C24.9294 -0.551295 27.9596 -0.348248 29.3764 1.59245C29.4356 1.67331 29.4858 1.76027 29.5615 1.87738C27.4633 1.95261 25.5426 2.31456 24.3816 4.18285L24.4364 4.39941C24.8421 4.39941 25.2557 4.44808 25.6511 4.38581C26.0497 4.32292 26.4426 4.17808 26.8163 4.02019C28.3166 3.38613 29.8111 3.44972 31.2832 4.06941C32.4542 4.56238 33.5693 5.15972 34.4428 6.10105C35.2268 6.94605 35.4991 7.89769 35.0684 8.99675C34.9606 9.27191 34.8828 9.55831 34.7903 9.84206C32.399 9.67214 30.2199 10.6325 27.9292 10.9303C27.4146 10.9971 26.8753 11.0314 26.3659 10.9581C25.2361 10.7954 24.6909 9.66949 25.236 8.69011C25.7877 7.6987 26.7223 7.23488 27.8163 7.15495C29.1736 7.05581 30.5396 7.06292 31.902 7.03839C32.2285 7.03245 32.566 7.07089 32.6557 6.66699C32.7432 6.27284 32.5787 5.96785 32.1814 5.84269C29.6992 5.0605 27.2814 5.17378 25.0172 6.49613C23.6315 7.30535 23.1492 8.65081 23.5392 10.1958C23.9124 11.6744 24.9003 12.471 26.5546 12.6265C28.3092 12.7915 29.9727 12.3316 31.6387 11.9078C32.7329 11.6295 33.8239 11.3893 34.9615 11.631C36.6892 11.9982 38.0141 13.749 37.7149 15.2927C37.5418 16.1853 36.9432 16.7801 36.1803 17.2264C35.2548 17.7679 34.2417 17.9627 33.1628 17.9438C31.6211 17.9167 30.0696 17.8112 28.5578 18.2428C27.6099 18.5133 26.771 18.9765 26.0987 19.6814C24.6828 21.166 25.0417 23.7085 26.843 25.0922C28.0175 25.9944 29.3721 25.9253 30.4146 24.8825C30.5422 24.7548 30.5978 24.5056 30.5819 24.3214C30.5758 24.2503 30.2817 24.1745 30.1116 24.1511C29.7594 24.1028 29.3934 24.1277 29.0492 24.0521C28.0356 23.8297 27.4166 23.1506 27.3042 22.1939C27.2095 21.3864 27.7724 20.4922 28.6434 20.0675C29.4875 19.6557 30.3953 19.7036 31.2997 19.7105C32.2342 19.7175 33.1691 19.6991 34.1033 19.716C34.28 19.7192 34.4994 19.7907 34.623 19.9075C35.4735 20.7106 35.4399 22.0035 34.5589 22.8468C34.3875 23.0108 34.1824 23.1414 33.9953 23.2903C33.6728 23.5471 33.6471 23.87 33.8353 24.199C34.0283 24.5364 34.3443 24.5607 34.6442 24.3595C35.1146 24.0438 35.5602 23.693 36.0535 23.3297C37.2258 23.8191 38.2767 25.4383 38.2453 26.8016C38.2146 28.1389 37.2957 29.1996 35.6509 29.7955C34.1424 30.342 32.7676 30.2254 31.5887 29.0447C31.3489 28.8045 31.0645 28.6003 30.7778 28.4128C30.4576 28.2035 30.2206 28.2828 30.1354 28.6736C29.9415 29.5632 30.355 30.2228 31.0317 30.7296C32.7012 31.9801 34.522 31.9652 36.4045 31.262C36.57 31.2002 36.7307 31.1265 36.8918 31.0591C37.3656 31.906 37.0403 33.0931 36.0931 33.4327C35.1319 33.7772 34.0957 33.986 33.0745 34.0939C31.2488 34.2869 29.4067 34.3271 27.5776 34.4947C26.569 34.5871 25.676 35.0109 24.9974 35.7784C24.5547 36.2792 24.1539 36.8167 24.4837 37.5242C24.7337 38.0606 25.5957 38.3898 26.3894 38.2572C26.6114 38.2201 26.8113 38.0561 27.0212 37.9503C26.8918 37.7637 26.7974 37.5355 26.6262 37.3985C26.1629 37.0274 26.1554 36.6399 26.7288 36.4649C27.6042 36.1976 28.5099 35.9857 29.4188 35.8724C30.5474 35.7315 31.6925 35.715 32.9891 35.635C32.3269 36.3701 31.7854 37.0324 31.1785 37.6316C30.0727 38.7235 28.8446 39.6335 27.2389 39.9308C24.4265 40.4515 21.5666 37.9524 21.9234 35.2735C22.2744 32.638 24.4489 30.8235 27.161 30.8964C27.6126 30.9086 28.0696 30.931 28.5149 30.8766C28.7314 30.8502 29.0089 30.7004 29.1044 30.5261C29.1753 30.3967 29.0522 30.0916 28.9216 29.9439C28.0535 28.9614 26.9128 28.7147 25.7184 29.1223C24.8128 29.4313 23.9667 29.9384 23.1446 30.4367C22.5441 30.8007 21.6125 30.5414 21.4148 29.8593C20.9972 28.4192 21.896 26.4426 23.3124 25.714C23.6834 25.5232 24.0772 25.3753 24.4571 25.2006C25.0196 24.9418 25.0646 24.5038 24.5506 24.1537C24.146 23.8782 23.7361 23.6022 23.2998 23.3803C21.0873 22.2544 21.0185 19.5901 21.476 18.0129C21.7117 17.2004 22.411 16.7679 23.1514 16.4405C24.5965 15.8016 26.1537 15.8344 27.6947 15.7396C29.2207 15.6458 30.7447 15.4965 32.2616 15.3096C32.655 15.2611 33.0467 15.0207 33.3846 14.7917C33.5752 14.6624 33.7322 14.3856 33.7597 14.1586C33.7838 13.9602 33.6601 13.6506 33.4989 13.5551C33.3741 13.4811 33.0915 13.665 32.8774 13.7288C32.3755 13.8784 31.8793 14.1207 31.3689 14.1545C29.7657 14.2605 28.1564 14.2741 26.5507 14.3484C24.0793 14.4627 22.6689 13.3805 22.1999 10.8609C22.0503 10.0582 22.0707 9.21089 22.1249 8.39089C22.1727 7.66683 22.5717 7.07878 23.2353 6.69245C23.4334 6.57722 23.6399 6.46058 23.8003 6.30355C23.9445 6.16261 24.2782 5.68847 23.646 5.40738C23.646 5.40738 22.4787 5.02324 22.5147 3.67199ZM39.3252 23.853C40.7127 22.8378 39.8145 19.0666 37.9585 18.2533L35.8858 19.1757C36.5276 20.0835 36.7989 21.0984 36.6345 22.0535L39.3251 23.853H39.3252Z" fill="#343A95"/>
</svg>
