<svg width="28" height="36" viewBox="0 0 28 36" fill="none" xmlns="http://www.w3.org/2000/svg">
<path d="M2.92001 7.31995L4.00001 11.9199L2.92001 16.4999L6.94001 18.9799L9.40001 22.9999L14 21.9199L18.6 22.9999L21.06 18.9799L25.08 16.4999L24 11.9199L25.08 7.31995L21.08 4.83995L18.6 0.819946L14 1.91995L9.42001 0.839946L6.92001 4.83995L2.92001 7.31995ZM14.02 19.9999C11.8983 19.9999 9.86345 19.1571 8.36316 17.6568C6.86287 16.1565 6.02001 14.1217 6.02001 11.9999C6.02001 9.87821 6.86287 7.84338 8.36316 6.34309C9.86345 4.8428 11.8983 3.99995 14.02 3.99995C18.42 3.99995 22 7.57995 22 11.9799C22 16.4199 18.42 19.9999 14.02 19.9999ZM13.98 17.9999C10.66 17.9999 8.00001 15.3199 8.00001 11.9999C8.00001 8.69995 10.66 5.99995 13.98 5.99995C17.3 5.99995 20 8.69995 20 11.9999C20 15.3199 17.3 17.9999 13.98 17.9999ZM21.66 20.1999L19.1 24.6799L14.94 23.7399L20 35.3999L22.8 30.9999H27.8L21.66 20.1999ZM6.26001 20.3399L8.76001 24.8399L13.02 23.8199L8.00001 35.3999L5.20001 30.9999H0.200012L6.26001 20.3399Z" fill="#343A95"/>
</svg>
