<svg width="34" height="34" viewBox="0 0 34 34" fill="none" xmlns="http://www.w3.org/2000/svg">
<path d="M8.16665 33.6666H0.333313V18.6666H3.66665L8.16665 33.6666ZM30.3316 12H20.3333V5.33331C20.3333 4.00723 19.8065 2.73546 18.8688 1.79778C17.9312 0.860097 16.6594 0.333313 15.3333 0.333313H13.6666V6.99998L8.83331 13.0416C7.64687 14.5247 7.00033 16.3674 6.99998 18.2666V20.3333L10.5 32H24.395C25.8819 32.0001 27.3262 31.5032 28.4982 30.5881C29.6702 29.6731 30.5027 28.3925 30.8633 26.95L33.565 16.1416C33.6878 15.6503 33.697 15.1373 33.592 14.6419C33.4869 14.1464 33.2703 13.6813 32.9586 13.2821C32.6469 12.8828 32.2484 12.5599 31.7932 12.3377C31.338 12.1156 30.8382 12.0001 30.3316 12Z" fill="#343A95"/>
</svg>
